<?xml version="1.0" encoding="UTF-8"?>
<svg version="1.1" xmlns="http://www.w3.org/2000/svg" width="512" height="512" viewBox="0 0 512 512">
<path d="M0 0 C2.0726186 1.95864578 4.0935394 3.95838543 6.10122681 5.98353577 C7.20769562 7.08569931 7.20769562 7.08569931 8.33651733 8.21012878 C9.88645021 9.75802903 11.43263658 11.30968885 12.97525024 12.86488342 C15.33169243 15.2374122 17.70374012 17.5934838 20.07778931 19.94837952 C21.58656481 21.45913714 23.09440959 22.97082496 24.60122681 24.48353577 C25.30749207 25.18372833 26.01375732 25.8839209 26.74142456 26.60533142 C32.32963564 32.27386779 35.59865426 37.49687277 36.39810181 45.49134827 C35.59298975 55.47473773 30.61171831 61.70143629 23.60122681 68.43666077 C22.78563293 69.24376495 21.97003906 70.05086914 21.12973022 70.88243103 C18.54553792 73.4332895 15.94119665 75.96237439 13.33560181 78.49134827 C11.56989978 80.2269255 9.80556205 81.96389187 8.04263306 83.70228577 C3.73926859 87.93983139 -0.58079629 92.15974223 -4.91439819 96.36634827 C-3.25709445 99.91499359 -1.34788148 102.05422105 1.52310181 104.74134827 C6.52493395 109.6868897 9.17273275 113.21226906 9.46060181 120.36634827 C9.2424431 126.42934233 7.64423695 129.84234946 3.27310181 134.11634827 C-2.13016266 137.9304173 -6.30507959 138.86355791 -12.76205444 137.88587952 C-20.34107764 136.05646012 -25.70181459 128.76435975 -30.91439819 123.36634827 C-35.55409684 127.24810348 -39.96744147 131.27211487 -44.24075317 135.55226135 C-44.83673254 136.1452696 -45.43271191 136.73827785 -46.04675126 137.34925604 C-48.02419805 139.31809683 -49.99811767 141.29043417 -51.97201538 143.26283264 C-53.3965432 144.68272686 -54.8212666 146.10242488 -56.24617004 147.52194214 C-60.10167109 151.36437694 -63.95387985 155.21009532 -67.80507946 159.0568409 C-70.21230979 161.4611336 -72.62012308 163.86484098 -75.02811432 166.26837158 C-82.56582841 173.79243139 -90.10155219 181.31847611 -97.63437629 188.84743166 C-106.32441516 197.53298253 -115.02096635 206.21194271 -123.7232101 214.88526487 C-130.4564506 221.59690348 -137.18392953 228.31428156 -143.90704656 235.03606081 C-147.92035262 239.04831859 -151.93605464 243.05810653 -155.95775604 247.06195068 C-159.73674838 250.82448637 -163.50854312 254.59408999 -167.27491951 258.36925316 C-168.65783762 259.75294269 -170.04332366 261.1340712 -171.43155479 262.51243019 C-173.32671507 264.39490083 -175.2123842 266.28640111 -177.09597778 268.18043518 C-177.64665192 268.72305292 -178.19732606 269.26567065 -178.7646873 269.82473135 C-183.18715831 274.30471291 -186.11096927 278.77320141 -186.66439819 285.11634827 C-186.74174194 285.87431702 -186.81908569 286.63228577 -186.89877319 287.41322327 C-186.91258863 290.02434073 -186.7250173 292.46231887 -186.44564819 295.05384827 C-183.20597195 325.30950982 -187.67316534 362.2884199 -206.35189819 387.36634827 C-207.51451475 388.72143379 -208.70236956 390.05527213 -209.91439819 391.36634827 C-210.54474976 392.0869342 -211.17510132 392.80752014 -211.82455444 393.54994202 C-222.05930604 404.58816944 -234.8028262 411.57849348 -248.91439819 416.36634827 C-249.62596069 416.62029358 -250.33752319 416.87423889 -251.07064819 417.13587952 C-271.2800625 423.29620537 -294.35504749 417.67856496 -312.53939819 408.17884827 C-327.60174665 399.9998955 -339.83620362 389.44454284 -351.91439819 377.36634827 C-352.92180054 376.4285553 -352.92180054 376.4285553 -353.94955444 375.47181702 C-374.85605988 355.69321554 -389.37851576 327.97774823 -390.22689819 298.99134827 C-389.78512382 276.10191334 -379.09536484 255.20387414 -362.91439819 239.36634827 C-338.06010428 217.30484695 -300.4978263 214.18997929 -268.91439819 215.36634827 C-265.77700829 215.61257673 -262.64834155 215.89412956 -259.5184021 216.22132874 C-253.04803674 216.58166973 -247.98009908 214.27458954 -242.91439819 210.36634827 C-240.35182858 208.07164592 -237.93249298 205.64608932 -235.51123047 203.20368958 C-234.7873987 202.48156666 -234.06356694 201.75944375 -233.31780088 201.01543832 C-230.89942375 198.60034911 -228.48825311 196.17819295 -226.07699585 193.7559967 C-224.34257239 192.02100898 -222.60770818 190.28646177 -220.87243652 188.55232239 C-217.14048692 184.82082787 -213.4116185 181.0862954 -209.68553543 177.34894562 C-204.2982941 171.94542531 -198.90551497 166.54745969 -193.51138394 161.15081814 C-184.75915328 152.39421414 -176.01139495 143.6331565 -167.26644897 134.86927795 C-158.77335487 126.35781571 -150.27815521 117.84846411 -141.78012085 109.3419342 C-140.99391853 108.55494371 -140.99391853 108.55494371 -140.19183333 107.75205442 C-137.56229505 105.119906 -134.93271538 102.48779893 -132.30311513 99.85571241 C-110.50045546 78.03233148 -88.70512913 56.20164041 -66.91439819 34.36634827 C-67.87538037 33.24345618 -68.83660946 32.12077539 -69.79794312 30.9981842 C-70.33320114 30.37296875 -70.86845917 29.7477533 -71.41993713 29.10359192 C-72.52988522 27.81332727 -73.65090351 26.53256866 -74.77767944 25.25697327 C-75.25592163 24.71556702 -75.73416382 24.17416077 -76.22689819 23.61634827 C-76.71803101 23.06462952 -77.20916382 22.51291077 -77.71517944 21.94447327 C-81.04611561 17.56109147 -80.52543326 11.56725139 -79.91439819 6.36634827 C-78.22024277 1.58471334 -75.55912781 -1.61107693 -71.16439819 -4.13365173 C-66.83977043 -5.96957861 -62.54056973 -6.5159628 -57.91439819 -5.63365173 C-53.15768911 -3.68542514 -50.08409428 -1.13455172 -46.53939819 2.55384827 C-45.66541382 3.45490295 -44.79142944 4.35595764 -43.89096069 5.28431702 C-43.23869507 5.97138733 -42.58642944 6.65845764 -41.91439819 7.36634827 C-38.81606733 6.00281268 -36.87851555 4.47987034 -34.60189819 1.99134827 C-24.57056627 -8.31922844 -11.16005614 -9.52343411 0 0 Z M-83.21041965 100.5616684 C-84.24881736 101.6063433 -85.28437454 102.65384551 -86.31785583 103.7033844 C-86.88728564 104.27760431 -87.45671545 104.85182422 -88.0434007 105.44344473 C-89.96763076 107.38487754 -91.88832831 109.32977007 -93.80917358 111.27455139 C-95.1820887 112.66083479 -96.55527934 114.04684536 -97.9287262 115.43260193 C-100.89645034 118.42729745 -103.86299931 121.42315087 -106.82890511 124.41964722 C-111.52819728 129.16578618 -116.23498091 133.90444537 -120.94380188 138.64112854 C-121.7382784 139.4403443 -122.53275493 140.23956006 -123.3513065 141.06299448 C-125.80000384 143.52615879 -128.24879954 145.98922528 -130.69760132 148.45228577 C-140.84086392 158.65496485 -150.97866949 168.86286666 -161.09335327 179.09388733 C-168.46280266 186.54799216 -175.84655215 193.98759918 -183.24697298 201.41096067 C-187.16053866 205.33775836 -191.06665942 209.27135097 -194.9554615 213.22268677 C-198.62426228 216.95019216 -202.3118518 220.65806811 -206.0139637 224.35248184 C-207.36081321 225.70309251 -208.70093658 227.06045415 -210.03326035 228.42539597 C-223.50645149 242.21272598 -238.47926025 251.21485939 -258.35189819 251.49134827 C-261.3121152 251.50293424 -264.17915542 251.22737114 -267.11361694 250.87416077 C-289.55809282 248.30525641 -317.31746479 250.61947781 -336.67611694 263.42494202 C-346.18033882 271.66856902 -353.14015988 283.23022446 -354.91439819 295.74134827 C-355.79261986 315.54383039 -344.15662133 333.11383338 -331.60189819 347.36634827 C-330.04859181 349.04158655 -328.4857295 350.70800513 -326.91439819 352.36634827 C-326.08166382 353.26353577 -325.24892944 354.16072327 -324.39096069 355.08509827 C-311.42441156 368.62202346 -292.33431707 383.32671329 -272.81332397 383.74720764 C-258.36986391 383.70782534 -248.57331751 379.35542665 -237.84408569 369.45619202 C-223.34186117 354.16921509 -220.30645589 327.84987116 -220.74252319 307.61634827 C-220.93295653 304.01542699 -221.27806065 300.45635638 -221.68002319 296.87416077 C-223.17314393 280.89776893 -220.63099555 265.34410179 -210.63624859 252.42064381 C-209.77429199 251.38993794 -208.90552582 250.36489914 -208.03102112 249.34481812 C-207.55257443 248.78403669 -207.07412773 248.22325526 -206.58118266 247.64548045 C-200.87873808 241.05064016 -194.72896912 234.91573363 -188.5484314 228.77333069 C-187.24590242 227.47136752 -185.94381696 226.16896052 -184.64213562 224.8661499 C-181.14735951 221.37080587 -177.64650344 217.88161209 -174.14442468 214.39358687 C-170.47063456 210.73239881 -166.80260284 207.0654503 -163.13392639 203.3991394 C-156.20386157 196.47526175 -149.26871985 189.556493 -142.3316862 182.63959819 C-134.42674624 174.75710383 -126.52756401 166.86885011 -118.62883246 158.98013532 C-102.39703375 142.76917592 -86.15810806 126.56537181 -69.91439819 110.36634827 C-71.51163001 106.98147441 -73.29260421 104.74705381 -75.97689819 102.11634827 C-76.68974976 101.40994202 -77.40260132 100.70353577 -78.13705444 99.97572327 C-80.80793471 97.55725586 -80.46073426 97.9325816 -83.21041965 100.5616684 Z " fill="currentColor" transform="translate(432.9143981933594,51.63365173339844)"/>
<path d="M0 0 C0.90105469 -0.04898437 1.80210937 -0.09796875 2.73046875 -0.1484375 C10.98389641 1.25328532 16.90468939 7.97441771 22.5625 13.6875 C23.30371094 14.40873047 24.04492188 15.12996094 24.80859375 15.87304688 C29.8291329 20.89809279 33.9186626 25.80024165 35.30859375 32.9140625 C35.14827403 38.62144464 34.33849415 42.77578863 30.1953125 47.0390625 C25.20752164 51.55590315 21.68413918 52.68675925 14.8359375 52.59765625 C10.24120003 52.09205773 6.21714586 49.38680211 2.8125 46.375 C2.8125 45.715 2.8125 45.055 2.8125 44.375 C1.3275 43.88 1.3275 43.88 -0.1875 43.375 C-0.1875 42.715 -0.1875 42.055 -0.1875 41.375 C-1.6725 40.88 -1.6725 40.88 -3.1875 40.375 C-3.1875 39.715 -3.1875 39.055 -3.1875 38.375 C-3.8475 38.375 -4.5075 38.375 -5.1875 38.375 C-5.1875 37.715 -5.1875 37.055 -5.1875 36.375 C-6.1775 36.045 -7.1675 35.715 -8.1875 35.375 C-8.1875 34.715 -8.1875 34.055 -8.1875 33.375 C-9.1775 33.045 -10.1675 32.715 -11.1875 32.375 C-15.29789302 28.07458881 -17.60603552 23.72921146 -17.8125 17.75 C-17.42342817 11.28054979 -15.42777813 7.45135534 -10.625 3 C-7.08362335 0.63908223 -4.1756537 0.15312693 0 0 Z " fill="currentColor" transform="translate(139.1875,339.625)"/>
<path d="M0 0 C3.63303084 1.69586126 5.94549046 3.73800488 8.75 6.625 C9.54921875 7.44226563 10.3484375 8.25953125 11.171875 9.1015625 C11.77515625 9.72804688 12.3784375 10.35453125 13 11 C8.62970634 16.22948744 4.03088196 21.10289955 -0.8046875 25.90234375 C-1.5286673 26.6249086 -2.25264709 27.34747345 -2.99856567 28.0919342 C-5.28835265 30.37616922 -7.58160993 32.65688312 -9.875 34.9375 C-11.43773161 36.49521039 -13.0002339 38.05315087 -14.5625 39.61132812 C-18.3723531 43.41021602 -22.18505379 47.20622713 -26 51 C-29.63303084 49.30413874 -31.94549046 47.26199512 -34.75 44.375 C-35.54921875 43.55773437 -36.3484375 42.74046875 -37.171875 41.8984375 C-37.77515625 41.27195313 -38.3784375 40.64546875 -39 40 C-34.62970634 34.77051256 -30.03088196 29.89710045 -25.1953125 25.09765625 C-24.4713327 24.3750914 -23.74735291 23.65252655 -23.00143433 22.9080658 C-20.71164735 20.62383078 -18.41839007 18.34311688 -16.125 16.0625 C-14.56226839 14.50478961 -12.9997661 12.94684913 -11.4375 11.38867188 C-7.6276469 7.58978398 -3.81494621 3.79377287 0 0 Z " fill="currentColor" transform="translate(416,86)"/>
</svg>
